<?xml version="1.0" encoding="utf-8"?>
<!-- Generator: Adobe Illustrator 19.0.0, SVG Export Plug-In . SVG Version: 6.00 Build 0)  -->
<svg version="1.1" id="Layer_1" xmlns="http://www.w3.org/2000/svg" xmlns:xlink="http://www.w3.org/1999/xlink" x="0px" y="0px"
	 viewBox="0 0 173.9 173.9" style="enable-background:new 0 0 173.9 173.9;" xml:space="preserve">
<style type="text/css">
	.st0{fill:none;stroke:#FFFFFF;stroke-width:0.1;stroke-miterlimit:10;}
</style>
<g>
	<line class="st0" x1="87" y1="0" x2="87" y2="1.4"/>
	<line class="st0" x1="87" y1="172.5" x2="87" y2="173.9"/>
	<line class="st0" x1="85.5" y1="0" x2="85.5" y2="1.4"/>
	<line class="st0" x1="88.5" y1="172.5" x2="88.5" y2="173.9"/>
	<line class="st0" x1="83.9" y1="0.1" x2="84" y2="1.5"/>
	<line class="st0" x1="90" y1="172.5" x2="90" y2="173.9"/>
	<line class="st0" x1="82.4" y1="0.1" x2="82.5" y2="1.5"/>
	<line class="st0" x1="91.4" y1="172.4" x2="91.5" y2="173.8"/>
	<line class="st0" x1="80.9" y1="0.2" x2="81" y2="1.6"/>
	<line class="st0" x1="92.9" y1="172.3" x2="93" y2="173.7"/>
	<line class="st0" x1="79.4" y1="0.3" x2="79.5" y2="1.7"/>
	<line class="st0" x1="94.4" y1="172.2" x2="94.5" y2="173.6"/>
	<line class="st0" x1="77.9" y1="0.5" x2="78" y2="1.9"/>
	<line class="st0" x1="95.9" y1="172.1" x2="96.1" y2="173.5"/>
	<line class="st0" x1="76.4" y1="0.6" x2="76.5" y2="2"/>
	<line class="st0" x1="97.4" y1="171.9" x2="97.6" y2="173.3"/>
	<line class="st0" x1="74.9" y1="0.8" x2="75.1" y2="2.2"/>
	<line class="st0" x1="98.9" y1="171.7" x2="99.1" y2="173.1"/>
	<line class="st0" x1="73.4" y1="1.1" x2="73.6" y2="2.5"/>
	<line class="st0" x1="100.4" y1="171.5" x2="100.6" y2="172.9"/>
	<line class="st0" x1="71.9" y1="1.3" x2="72.1" y2="2.7"/>
	<line class="st0" x1="101.8" y1="171.2" x2="102.1" y2="172.6"/>
	<line class="st0" x1="70.4" y1="1.6" x2="70.6" y2="3"/>
	<line class="st0" x1="103.3" y1="171" x2="103.6" y2="172.3"/>
	<line class="st0" x1="68.9" y1="1.9" x2="69.2" y2="3.3"/>
	<line class="st0" x1="104.8" y1="170.7" x2="105.1" y2="172"/>
	<line class="st0" x1="67.4" y1="2.2" x2="67.7" y2="3.6"/>
	<line class="st0" x1="106.2" y1="170.3" x2="106.5" y2="171.7"/>
	<line class="st0" x1="65.9" y1="2.6" x2="66.3" y2="4"/>
	<line class="st0" x1="107.7" y1="170" x2="108" y2="171.4"/>
	<line class="st0" x1="64.5" y1="3" x2="64.8" y2="4.3"/>
	<line class="st0" x1="109.1" y1="169.6" x2="109.5" y2="171"/>
	<line class="st0" x1="63" y1="3.4" x2="63.4" y2="4.7"/>
	<line class="st0" x1="110.6" y1="169.2" x2="110.9" y2="170.6"/>
	<line class="st0" x1="61.5" y1="3.8" x2="62" y2="5.1"/>
	<line class="st0" x1="112" y1="168.8" x2="112.4" y2="170.1"/>
	<line class="st0" x1="60.1" y1="4.3" x2="60.5" y2="5.6"/>
	<line class="st0" x1="113.4" y1="168.3" x2="113.8" y2="169.7"/>
	<line class="st0" x1="58.7" y1="4.7" x2="59.1" y2="6.1"/>
	<line class="st0" x1="114.8" y1="167.9" x2="115.3" y2="169.2"/>
	<line class="st0" x1="57.2" y1="5.2" x2="57.7" y2="6.6"/>
	<line class="st0" x1="116.2" y1="167.4" x2="116.7" y2="168.7"/>
	<line class="st0" x1="55.8" y1="5.8" x2="56.3" y2="7.1"/>
	<line class="st0" x1="117.6" y1="166.8" x2="118.1" y2="168.2"/>
	<line class="st0" x1="54.4" y1="6.3" x2="54.9" y2="7.6"/>
	<line class="st0" x1="119" y1="166.3" x2="119.5" y2="167.6"/>
	<line class="st0" x1="53" y1="6.9" x2="53.5" y2="8.2"/>
	<line class="st0" x1="120.4" y1="165.7" x2="120.9" y2="167"/>
	<line class="st0" x1="51.6" y1="7.5" x2="52.2" y2="8.8"/>
	<line class="st0" x1="121.8" y1="165.1" x2="122.3" y2="166.4"/>
	<line class="st0" x1="50.2" y1="8.1" x2="50.8" y2="9.4"/>
	<line class="st0" x1="123.1" y1="164.5" x2="123.7" y2="165.8"/>
	<line class="st0" x1="48.8" y1="8.8" x2="49.5" y2="10.1"/>
	<line class="st0" x1="124.5" y1="163.9" x2="125.1" y2="165.1"/>
	<line class="st0" x1="47.5" y1="9.5" x2="48.1" y2="10.7"/>
	<line class="st0" x1="125.8" y1="163.2" x2="126.5" y2="164.5"/>
	<line class="st0" x1="46.1" y1="10.2" x2="46.8" y2="11.4"/>
	<line class="st0" x1="127.1" y1="162.5" x2="127.8" y2="163.8"/>
	<line class="st0" x1="44.8" y1="10.9" x2="45.5" y2="12.1"/>
	<line class="st0" x1="128.4" y1="161.8" x2="129.1" y2="163"/>
	<line class="st0" x1="43.5" y1="11.7" x2="44.2" y2="12.9"/>
	<line class="st0" x1="129.7" y1="161.1" x2="130.5" y2="162.3"/>
	<line class="st0" x1="42.2" y1="12.4" x2="42.9" y2="13.6"/>
	<line class="st0" x1="131" y1="160.3" x2="131.8" y2="161.5"/>
	<line class="st0" x1="40.9" y1="13.2" x2="41.6" y2="14.4"/>
	<line class="st0" x1="132.3" y1="159.5" x2="133.1" y2="160.7"/>
	<line class="st0" x1="39.6" y1="14" x2="40.4" y2="15.2"/>
	<line class="st0" x1="133.6" y1="158.7" x2="134.3" y2="159.9"/>
	<line class="st0" x1="38.3" y1="14.9" x2="39.1" y2="16"/>
	<line class="st0" x1="134.8" y1="157.9" x2="135.6" y2="159.1"/>
	<line class="st0" x1="37.1" y1="15.7" x2="37.9" y2="16.9"/>
	<line class="st0" x1="136" y1="157.1" x2="136.9" y2="158.2"/>
	<line class="st0" x1="35.8" y1="16.6" x2="36.7" y2="17.7"/>
	<line class="st0" x1="137.3" y1="156.2" x2="138.1" y2="157.3"/>
	<line class="st0" x1="34.6" y1="17.5" x2="35.5" y2="18.6"/>
	<line class="st0" x1="138.5" y1="155.3" x2="139.3" y2="156.4"/>
	<line class="st0" x1="33.4" y1="18.4" x2="34.3" y2="19.5"/>
	<line class="st0" x1="139.6" y1="154.4" x2="140.5" y2="155.5"/>
	<line class="st0" x1="32.2" y1="19.4" x2="33.1" y2="20.5"/>
	<line class="st0" x1="140.8" y1="153.5" x2="141.7" y2="154.6"/>
	<line class="st0" x1="31.1" y1="20.3" x2="32" y2="21.4"/>
	<line class="st0" x1="142" y1="152.5" x2="142.9" y2="153.6"/>
	<line class="st0" x1="29.9" y1="21.3" x2="30.8" y2="22.4"/>
	<line class="st0" x1="143.1" y1="151.5" x2="144" y2="152.6"/>
	<line class="st0" x1="28.8" y1="22.3" x2="29.7" y2="23.4"/>
	<line class="st0" x1="144.2" y1="150.6" x2="145.2" y2="151.6"/>
	<line class="st0" x1="27.7" y1="23.4" x2="28.6" y2="24.4"/>
	<line class="st0" x1="145.3" y1="149.5" x2="146.3" y2="150.6"/>
	<line class="st0" x1="26.6" y1="24.4" x2="27.5" y2="25.4"/>
	<line class="st0" x1="146.4" y1="148.5" x2="147.4" y2="149.5"/>
	<line class="st0" x1="25.5" y1="25.5" x2="26.5" y2="26.5"/>
	<line class="st0" x1="147.5" y1="147.5" x2="148.5" y2="148.5"/>
	<line class="st0" x1="24.4" y1="26.6" x2="25.4" y2="27.5"/>
	<line class="st0" x1="148.5" y1="146.4" x2="149.5" y2="147.4"/>
	<line class="st0" x1="23.4" y1="27.7" x2="24.4" y2="28.6"/>
	<line class="st0" x1="149.5" y1="145.3" x2="150.6" y2="146.3"/>
	<line class="st0" x1="22.3" y1="28.8" x2="23.4" y2="29.7"/>
	<line class="st0" x1="150.6" y1="144.2" x2="151.6" y2="145.2"/>
	<line class="st0" x1="21.3" y1="29.9" x2="22.4" y2="30.8"/>
	<line class="st0" x1="151.5" y1="143.1" x2="152.6" y2="144"/>
	<line class="st0" x1="20.3" y1="31.1" x2="21.4" y2="32"/>
	<line class="st0" x1="152.5" y1="142" x2="153.6" y2="142.9"/>
	<line class="st0" x1="19.4" y1="32.2" x2="20.5" y2="33.1"/>
	<line class="st0" x1="153.5" y1="140.8" x2="154.6" y2="141.7"/>
	<line class="st0" x1="18.4" y1="33.4" x2="19.5" y2="34.3"/>
	<line class="st0" x1="154.4" y1="139.6" x2="155.5" y2="140.5"/>
	<line class="st0" x1="17.5" y1="34.6" x2="18.6" y2="35.5"/>
	<line class="st0" x1="155.3" y1="138.5" x2="156.4" y2="139.3"/>
	<line class="st0" x1="16.6" y1="35.8" x2="17.7" y2="36.7"/>
	<line class="st0" x1="156.2" y1="137.3" x2="157.3" y2="138.1"/>
	<line class="st0" x1="15.7" y1="37.1" x2="16.9" y2="37.9"/>
	<line class="st0" x1="157.1" y1="136" x2="158.2" y2="136.9"/>
	<line class="st0" x1="14.9" y1="38.3" x2="16" y2="39.1"/>
	<line class="st0" x1="157.9" y1="134.8" x2="159.1" y2="135.6"/>
	<line class="st0" x1="14" y1="39.6" x2="15.2" y2="40.4"/>
	<line class="st0" x1="158.7" y1="133.6" x2="159.9" y2="134.3"/>
	<line class="st0" x1="13.2" y1="40.9" x2="14.4" y2="41.6"/>
	<line class="st0" x1="159.5" y1="132.3" x2="160.7" y2="133.1"/>
	<line class="st0" x1="12.4" y1="42.2" x2="13.6" y2="42.9"/>
	<line class="st0" x1="160.3" y1="131" x2="161.5" y2="131.8"/>
	<line class="st0" x1="11.7" y1="43.5" x2="12.9" y2="44.2"/>
	<line class="st0" x1="161.1" y1="129.7" x2="162.3" y2="130.5"/>
	<line class="st0" x1="10.9" y1="44.8" x2="12.1" y2="45.5"/>
	<line class="st0" x1="161.8" y1="128.4" x2="163" y2="129.1"/>
	<line class="st0" x1="10.2" y1="46.1" x2="11.4" y2="46.8"/>
	<line class="st0" x1="162.5" y1="127.1" x2="163.8" y2="127.8"/>
	<line class="st0" x1="9.5" y1="47.5" x2="10.7" y2="48.1"/>
	<line class="st0" x1="163.2" y1="125.8" x2="164.5" y2="126.5"/>
	<line class="st0" x1="8.8" y1="48.8" x2="10.1" y2="49.5"/>
	<line class="st0" x1="163.9" y1="124.5" x2="165.1" y2="125.1"/>
	<line class="st0" x1="8.1" y1="50.2" x2="9.4" y2="50.8"/>
	<line class="st0" x1="164.5" y1="123.1" x2="165.8" y2="123.7"/>
	<line class="st0" x1="7.5" y1="51.6" x2="8.8" y2="52.2"/>
	<line class="st0" x1="165.1" y1="121.8" x2="166.4" y2="122.3"/>
	<line class="st0" x1="6.9" y1="53" x2="8.2" y2="53.5"/>
	<line class="st0" x1="165.7" y1="120.4" x2="167" y2="120.9"/>
	<line class="st0" x1="6.3" y1="54.4" x2="7.6" y2="54.9"/>
	<line class="st0" x1="166.3" y1="119" x2="167.6" y2="119.5"/>
	<line class="st0" x1="5.8" y1="55.8" x2="7.1" y2="56.3"/>
	<line class="st0" x1="166.8" y1="117.6" x2="168.2" y2="118.1"/>
	<line class="st0" x1="5.2" y1="57.2" x2="6.6" y2="57.7"/>
	<line class="st0" x1="167.4" y1="116.2" x2="168.7" y2="116.7"/>
	<line class="st0" x1="4.7" y1="58.7" x2="6.1" y2="59.1"/>
	<line class="st0" x1="167.9" y1="114.8" x2="169.2" y2="115.3"/>
	<line class="st0" x1="4.3" y1="60.1" x2="5.6" y2="60.5"/>
	<line class="st0" x1="168.3" y1="113.4" x2="169.7" y2="113.8"/>
	<line class="st0" x1="3.8" y1="61.5" x2="5.1" y2="62"/>
	<line class="st0" x1="168.8" y1="112" x2="170.1" y2="112.4"/>
	<line class="st0" x1="3.4" y1="63" x2="4.7" y2="63.4"/>
	<line class="st0" x1="169.2" y1="110.6" x2="170.6" y2="110.9"/>
	<line class="st0" x1="3" y1="64.5" x2="4.3" y2="64.8"/>
	<line class="st0" x1="169.6" y1="109.1" x2="171" y2="109.5"/>
	<line class="st0" x1="2.6" y1="65.9" x2="4" y2="66.3"/>
	<line class="st0" x1="170" y1="107.7" x2="171.4" y2="108"/>
	<line class="st0" x1="2.2" y1="67.4" x2="3.6" y2="67.7"/>
	<line class="st0" x1="170.3" y1="106.2" x2="171.7" y2="106.5"/>
	<line class="st0" x1="1.9" y1="68.9" x2="3.3" y2="69.2"/>
	<line class="st0" x1="170.7" y1="104.8" x2="172" y2="105.1"/>
	<line class="st0" x1="1.6" y1="70.4" x2="3" y2="70.6"/>
	<line class="st0" x1="171" y1="103.3" x2="172.3" y2="103.6"/>
	<line class="st0" x1="1.3" y1="71.9" x2="2.7" y2="72.1"/>
	<line class="st0" x1="171.2" y1="101.8" x2="172.6" y2="102.1"/>
	<line class="st0" x1="1.1" y1="73.4" x2="2.5" y2="73.6"/>
	<line class="st0" x1="171.5" y1="100.4" x2="172.9" y2="100.6"/>
	<line class="st0" x1="0.8" y1="74.9" x2="2.2" y2="75.1"/>
	<line class="st0" x1="171.7" y1="98.9" x2="173.1" y2="99.1"/>
	<line class="st0" x1="0.6" y1="76.4" x2="2" y2="76.5"/>
	<line class="st0" x1="171.9" y1="97.4" x2="173.3" y2="97.6"/>
	<line class="st0" x1="0.5" y1="77.9" x2="1.9" y2="78"/>
	<line class="st0" x1="172.1" y1="95.9" x2="173.5" y2="96.1"/>
	<line class="st0" x1="0.3" y1="79.4" x2="1.7" y2="79.5"/>
	<line class="st0" x1="172.2" y1="94.4" x2="173.6" y2="94.5"/>
	<line class="st0" x1="0.2" y1="80.9" x2="1.6" y2="81"/>
	<line class="st0" x1="172.3" y1="92.9" x2="173.7" y2="93"/>
	<line class="st0" x1="0.1" y1="82.4" x2="1.5" y2="82.5"/>
	<line class="st0" x1="172.4" y1="91.4" x2="173.8" y2="91.5"/>
	<line class="st0" x1="0.1" y1="83.9" x2="1.5" y2="84"/>
	<line class="st0" x1="172.5" y1="90" x2="173.9" y2="90"/>
	<line class="st0" x1="0" y1="85.5" x2="1.4" y2="85.5"/>
	<line class="st0" x1="172.5" y1="88.5" x2="173.9" y2="88.5"/>
	<line class="st0" x1="0" y1="87" x2="1.4" y2="87"/>
	<line class="st0" x1="172.5" y1="87" x2="173.9" y2="87"/>
	<line class="st0" x1="0" y1="88.5" x2="1.4" y2="88.5"/>
	<line class="st0" x1="172.5" y1="85.5" x2="173.9" y2="85.5"/>
	<line class="st0" x1="0.1" y1="90" x2="1.5" y2="90"/>
	<line class="st0" x1="172.5" y1="84" x2="173.9" y2="83.9"/>
	<line class="st0" x1="0.1" y1="91.5" x2="1.5" y2="91.4"/>
	<line class="st0" x1="172.4" y1="82.5" x2="173.8" y2="82.4"/>
	<line class="st0" x1="0.2" y1="93" x2="1.6" y2="92.9"/>
	<line class="st0" x1="172.3" y1="81" x2="173.7" y2="80.9"/>
	<line class="st0" x1="0.3" y1="94.5" x2="1.7" y2="94.4"/>
	<line class="st0" x1="172.2" y1="79.5" x2="173.6" y2="79.4"/>
	<line class="st0" x1="0.5" y1="96.1" x2="1.9" y2="95.9"/>
	<line class="st0" x1="172.1" y1="78" x2="173.5" y2="77.9"/>
	<line class="st0" x1="0.6" y1="97.6" x2="2" y2="97.4"/>
	<line class="st0" x1="171.9" y1="76.5" x2="173.3" y2="76.4"/>
	<line class="st0" x1="0.8" y1="99.1" x2="2.2" y2="98.9"/>
	<line class="st0" x1="171.7" y1="75.1" x2="173.1" y2="74.9"/>
	<line class="st0" x1="1.1" y1="100.6" x2="2.5" y2="100.4"/>
	<line class="st0" x1="171.5" y1="73.6" x2="172.9" y2="73.4"/>
	<line class="st0" x1="1.3" y1="102.1" x2="2.7" y2="101.8"/>
	<line class="st0" x1="171.2" y1="72.1" x2="172.6" y2="71.9"/>
	<line class="st0" x1="1.6" y1="103.6" x2="3" y2="103.3"/>
	<line class="st0" x1="171" y1="70.6" x2="172.3" y2="70.4"/>
	<line class="st0" x1="1.9" y1="105.1" x2="3.3" y2="104.8"/>
	<line class="st0" x1="170.7" y1="69.2" x2="172" y2="68.9"/>
	<line class="st0" x1="2.2" y1="106.5" x2="3.6" y2="106.2"/>
	<line class="st0" x1="170.3" y1="67.7" x2="171.7" y2="67.4"/>
	<line class="st0" x1="2.6" y1="108" x2="4" y2="107.7"/>
	<line class="st0" x1="170" y1="66.3" x2="171.4" y2="65.9"/>
	<line class="st0" x1="3" y1="109.5" x2="4.3" y2="109.1"/>
	<line class="st0" x1="169.6" y1="64.8" x2="171" y2="64.5"/>
	<line class="st0" x1="3.4" y1="110.9" x2="4.7" y2="110.6"/>
	<line class="st0" x1="169.2" y1="63.4" x2="170.6" y2="63"/>
	<line class="st0" x1="3.8" y1="112.4" x2="5.1" y2="112"/>
	<line class="st0" x1="168.8" y1="62" x2="170.1" y2="61.5"/>
	<line class="st0" x1="4.3" y1="113.8" x2="5.6" y2="113.4"/>
	<line class="st0" x1="168.3" y1="60.5" x2="169.7" y2="60.1"/>
	<line class="st0" x1="4.7" y1="115.3" x2="6.1" y2="114.8"/>
	<line class="st0" x1="167.9" y1="59.1" x2="169.2" y2="58.7"/>
	<line class="st0" x1="5.2" y1="116.7" x2="6.6" y2="116.2"/>
	<line class="st0" x1="167.4" y1="57.7" x2="168.7" y2="57.2"/>
	<line class="st0" x1="5.8" y1="118.1" x2="7.1" y2="117.6"/>
	<line class="st0" x1="166.8" y1="56.3" x2="168.2" y2="55.8"/>
	<line class="st0" x1="6.3" y1="119.5" x2="7.6" y2="119"/>
	<line class="st0" x1="166.3" y1="54.9" x2="167.6" y2="54.4"/>
	<line class="st0" x1="6.9" y1="120.9" x2="8.2" y2="120.4"/>
	<line class="st0" x1="165.7" y1="53.5" x2="167" y2="53"/>
	<line class="st0" x1="7.5" y1="122.3" x2="8.8" y2="121.8"/>
	<line class="st0" x1="165.1" y1="52.2" x2="166.4" y2="51.6"/>
	<line class="st0" x1="8.1" y1="123.7" x2="9.4" y2="123.1"/>
	<line class="st0" x1="164.5" y1="50.8" x2="165.8" y2="50.2"/>
	<line class="st0" x1="8.8" y1="125.1" x2="10.1" y2="124.5"/>
	<line class="st0" x1="163.9" y1="49.5" x2="165.1" y2="48.8"/>
	<line class="st0" x1="9.5" y1="126.5" x2="10.7" y2="125.8"/>
	<line class="st0" x1="163.2" y1="48.1" x2="164.5" y2="47.5"/>
	<line class="st0" x1="10.2" y1="127.8" x2="11.4" y2="127.1"/>
	<line class="st0" x1="162.5" y1="46.8" x2="163.8" y2="46.1"/>
	<line class="st0" x1="10.9" y1="129.1" x2="12.1" y2="128.4"/>
	<line class="st0" x1="161.8" y1="45.5" x2="163" y2="44.8"/>
	<line class="st0" x1="11.7" y1="130.5" x2="12.9" y2="129.7"/>
	<line class="st0" x1="161.1" y1="44.2" x2="162.3" y2="43.5"/>
	<line class="st0" x1="12.4" y1="131.8" x2="13.6" y2="131"/>
	<line class="st0" x1="160.3" y1="42.9" x2="161.5" y2="42.2"/>
	<line class="st0" x1="13.2" y1="133.1" x2="14.4" y2="132.3"/>
	<line class="st0" x1="159.5" y1="41.6" x2="160.7" y2="40.9"/>
	<line class="st0" x1="14" y1="134.3" x2="15.2" y2="133.6"/>
	<line class="st0" x1="158.7" y1="40.4" x2="159.9" y2="39.6"/>
	<line class="st0" x1="14.9" y1="135.6" x2="16" y2="134.8"/>
	<line class="st0" x1="157.9" y1="39.1" x2="159.1" y2="38.3"/>
	<line class="st0" x1="15.7" y1="136.9" x2="16.9" y2="136"/>
	<line class="st0" x1="157.1" y1="37.9" x2="158.2" y2="37.1"/>
	<line class="st0" x1="16.6" y1="138.1" x2="17.7" y2="137.3"/>
	<line class="st0" x1="156.2" y1="36.7" x2="157.3" y2="35.8"/>
	<line class="st0" x1="17.5" y1="139.3" x2="18.6" y2="138.5"/>
	<line class="st0" x1="155.3" y1="35.5" x2="156.4" y2="34.6"/>
	<line class="st0" x1="18.4" y1="140.5" x2="19.5" y2="139.6"/>
	<line class="st0" x1="154.4" y1="34.3" x2="155.5" y2="33.4"/>
	<line class="st0" x1="19.4" y1="141.7" x2="20.5" y2="140.8"/>
	<line class="st0" x1="153.5" y1="33.1" x2="154.6" y2="32.2"/>
	<line class="st0" x1="20.3" y1="142.9" x2="21.4" y2="142"/>
	<line class="st0" x1="152.5" y1="32" x2="153.6" y2="31.1"/>
	<line class="st0" x1="21.3" y1="144" x2="22.4" y2="143.1"/>
	<line class="st0" x1="151.5" y1="30.8" x2="152.6" y2="29.9"/>
	<line class="st0" x1="22.3" y1="145.2" x2="23.4" y2="144.2"/>
	<line class="st0" x1="150.6" y1="29.7" x2="151.6" y2="28.8"/>
	<line class="st0" x1="23.4" y1="146.3" x2="24.4" y2="145.3"/>
	<line class="st0" x1="149.5" y1="28.6" x2="150.6" y2="27.7"/>
	<line class="st0" x1="24.4" y1="147.4" x2="25.4" y2="146.4"/>
	<line class="st0" x1="148.5" y1="27.5" x2="149.5" y2="26.6"/>
	<line class="st0" x1="25.5" y1="148.5" x2="26.5" y2="147.5"/>
	<line class="st0" x1="147.5" y1="26.5" x2="148.5" y2="25.5"/>
	<line class="st0" x1="26.6" y1="149.5" x2="27.5" y2="148.5"/>
	<line class="st0" x1="146.4" y1="25.4" x2="147.4" y2="24.4"/>
	<line class="st0" x1="27.7" y1="150.6" x2="28.6" y2="149.5"/>
	<line class="st0" x1="145.3" y1="24.4" x2="146.3" y2="23.4"/>
	<line class="st0" x1="28.8" y1="151.6" x2="29.7" y2="150.6"/>
	<line class="st0" x1="144.2" y1="23.4" x2="145.2" y2="22.3"/>
	<line class="st0" x1="29.9" y1="152.6" x2="30.8" y2="151.5"/>
	<line class="st0" x1="143.1" y1="22.4" x2="144" y2="21.3"/>
	<line class="st0" x1="31.1" y1="153.6" x2="32" y2="152.5"/>
	<line class="st0" x1="142" y1="21.4" x2="142.9" y2="20.3"/>
	<line class="st0" x1="32.2" y1="154.6" x2="33.1" y2="153.5"/>
	<line class="st0" x1="140.8" y1="20.5" x2="141.7" y2="19.4"/>
	<line class="st0" x1="33.4" y1="155.5" x2="34.3" y2="154.4"/>
	<line class="st0" x1="139.6" y1="19.5" x2="140.5" y2="18.4"/>
	<line class="st0" x1="34.6" y1="156.4" x2="35.5" y2="155.3"/>
	<line class="st0" x1="138.5" y1="18.6" x2="139.3" y2="17.5"/>
	<line class="st0" x1="35.8" y1="157.3" x2="36.7" y2="156.2"/>
	<line class="st0" x1="137.3" y1="17.7" x2="138.1" y2="16.6"/>
	<line class="st0" x1="37.1" y1="158.2" x2="37.9" y2="157.1"/>
	<line class="st0" x1="136" y1="16.9" x2="136.9" y2="15.7"/>
	<line class="st0" x1="38.3" y1="159.1" x2="39.1" y2="157.9"/>
	<line class="st0" x1="134.8" y1="16" x2="135.6" y2="14.9"/>
	<line class="st0" x1="39.6" y1="159.9" x2="40.4" y2="158.7"/>
	<line class="st0" x1="133.6" y1="15.2" x2="134.3" y2="14"/>
	<line class="st0" x1="40.9" y1="160.7" x2="41.6" y2="159.5"/>
	<line class="st0" x1="132.3" y1="14.4" x2="133.1" y2="13.2"/>
	<line class="st0" x1="42.2" y1="161.5" x2="42.9" y2="160.3"/>
	<line class="st0" x1="131" y1="13.6" x2="131.8" y2="12.4"/>
	<line class="st0" x1="43.5" y1="162.3" x2="44.2" y2="161.1"/>
	<line class="st0" x1="129.7" y1="12.9" x2="130.5" y2="11.7"/>
	<line class="st0" x1="44.8" y1="163" x2="45.5" y2="161.8"/>
	<line class="st0" x1="128.4" y1="12.1" x2="129.1" y2="10.9"/>
	<line class="st0" x1="46.1" y1="163.8" x2="46.8" y2="162.5"/>
	<line class="st0" x1="127.1" y1="11.4" x2="127.8" y2="10.2"/>
	<line class="st0" x1="47.5" y1="164.5" x2="48.1" y2="163.2"/>
	<line class="st0" x1="125.8" y1="10.7" x2="126.5" y2="9.5"/>
	<line class="st0" x1="48.8" y1="165.1" x2="49.5" y2="163.9"/>
	<line class="st0" x1="124.5" y1="10.1" x2="125.1" y2="8.8"/>
	<line class="st0" x1="50.2" y1="165.8" x2="50.8" y2="164.5"/>
	<line class="st0" x1="123.1" y1="9.4" x2="123.7" y2="8.1"/>
	<line class="st0" x1="51.6" y1="166.4" x2="52.2" y2="165.1"/>
	<line class="st0" x1="121.8" y1="8.8" x2="122.3" y2="7.5"/>
	<line class="st0" x1="53" y1="167" x2="53.5" y2="165.7"/>
	<line class="st0" x1="120.4" y1="8.2" x2="120.9" y2="6.9"/>
	<line class="st0" x1="54.4" y1="167.6" x2="54.9" y2="166.3"/>
	<line class="st0" x1="119" y1="7.6" x2="119.5" y2="6.3"/>
	<line class="st0" x1="55.8" y1="168.2" x2="56.3" y2="166.8"/>
	<line class="st0" x1="117.6" y1="7.1" x2="118.1" y2="5.8"/>
	<line class="st0" x1="57.2" y1="168.7" x2="57.7" y2="167.4"/>
	<line class="st0" x1="116.2" y1="6.6" x2="116.7" y2="5.2"/>
	<line class="st0" x1="58.7" y1="169.2" x2="59.1" y2="167.9"/>
	<line class="st0" x1="114.8" y1="6.1" x2="115.3" y2="4.7"/>
	<line class="st0" x1="60.1" y1="169.7" x2="60.5" y2="168.3"/>
	<line class="st0" x1="113.4" y1="5.6" x2="113.8" y2="4.3"/>
	<line class="st0" x1="61.5" y1="170.1" x2="62" y2="168.8"/>
	<line class="st0" x1="112" y1="5.1" x2="112.4" y2="3.8"/>
	<line class="st0" x1="63" y1="170.6" x2="63.4" y2="169.2"/>
	<line class="st0" x1="110.6" y1="4.7" x2="110.9" y2="3.4"/>
	<line class="st0" x1="64.5" y1="171" x2="64.8" y2="169.6"/>
	<line class="st0" x1="109.1" y1="4.3" x2="109.5" y2="3"/>
	<line class="st0" x1="65.9" y1="171.4" x2="66.3" y2="170"/>
	<line class="st0" x1="107.7" y1="4" x2="108" y2="2.6"/>
	<line class="st0" x1="67.4" y1="171.7" x2="67.7" y2="170.3"/>
	<line class="st0" x1="106.2" y1="3.6" x2="106.5" y2="2.2"/>
	<line class="st0" x1="68.9" y1="172" x2="69.2" y2="170.7"/>
	<line class="st0" x1="104.8" y1="3.3" x2="105.1" y2="1.9"/>
	<line class="st0" x1="70.4" y1="172.3" x2="70.6" y2="171"/>
	<line class="st0" x1="103.3" y1="3" x2="103.6" y2="1.6"/>
	<line class="st0" x1="71.9" y1="172.6" x2="72.1" y2="171.2"/>
	<line class="st0" x1="101.8" y1="2.7" x2="102.1" y2="1.3"/>
	<line class="st0" x1="73.4" y1="172.9" x2="73.6" y2="171.5"/>
	<line class="st0" x1="100.4" y1="2.5" x2="100.6" y2="1.1"/>
	<line class="st0" x1="74.9" y1="173.1" x2="75.1" y2="171.7"/>
	<line class="st0" x1="98.9" y1="2.2" x2="99.1" y2="0.8"/>
	<line class="st0" x1="76.4" y1="173.3" x2="76.5" y2="171.9"/>
	<line class="st0" x1="97.4" y1="2" x2="97.6" y2="0.6"/>
	<line class="st0" x1="77.9" y1="173.5" x2="78" y2="172.1"/>
	<line class="st0" x1="95.9" y1="1.9" x2="96.1" y2="0.5"/>
	<line class="st0" x1="79.4" y1="173.6" x2="79.5" y2="172.2"/>
	<line class="st0" x1="94.4" y1="1.7" x2="94.5" y2="0.3"/>
	<line class="st0" x1="80.9" y1="173.7" x2="81" y2="172.3"/>
	<line class="st0" x1="92.9" y1="1.6" x2="93" y2="0.2"/>
	<line class="st0" x1="82.4" y1="173.8" x2="82.5" y2="172.4"/>
	<line class="st0" x1="91.4" y1="1.5" x2="91.5" y2="0.1"/>
	<line class="st0" x1="83.9" y1="173.9" x2="84" y2="172.5"/>
	<line class="st0" x1="90" y1="1.5" x2="90" y2="0.1"/>
	<line class="st0" x1="85.5" y1="173.9" x2="85.5" y2="172.5"/>
	<line class="st0" x1="88.5" y1="1.4" x2="88.5" y2="0"/>
</g>
</svg>
