<svg id="Layer_1" xmlns="http://www.w3.org/2000/svg" viewBox="0 0 173.9 173.9"><style>.st0{fill:none;stroke:#fff;stroke-width:.1;stroke-miterlimit:10}</style><path class="st0" d="M87 0v1.4M87 172.5v1.4M85.5 0v1.4M88.5 172.5v1.4M83.9.1l.1 1.4M90 172.5v1.4M82.4.1l.1 1.4M91.4 172.4l.1 1.4M80.9.2l.1 1.4M92.9 172.3l.1 1.4M79.4.3l.1 1.4M94.4 172.2l.1 1.4M77.9.5l.1 1.4M95.9 172.1l.2 1.4M76.4.6l.1 1.4M97.4 171.9l.2 1.4M74.9.8l.2 1.4M98.9 171.7l.2 1.4M73.4 1.1l.2 1.4M100.4 171.5l.2 1.4M71.9 1.3l.2 1.4M101.8 171.2l.3 1.4M70.4 1.6l.2 1.4M103.3 171l.3 1.3M68.9 1.9l.3 1.4M104.8 170.7l.3 1.3M67.4 2.2l.3 1.4M106.2 170.3l.3 1.4M65.9 2.6l.4 1.4M107.7 170l.3 1.4M64.5 3l.3 1.3M109.1 169.6l.4 1.4M63 3.4l.4 1.3M110.6 169.2l.3 1.4M61.5 3.8l.5 1.3M112 168.8l.4 1.3M60.1 4.3l.4 1.3M113.4 168.3l.4 1.4M58.7 4.7l.4 1.4M114.8 167.9l.5 1.3M57.2 5.2l.5 1.4M116.2 167.4l.5 1.3M55.8 5.8l.5 1.3M117.6 166.8l.5 1.4M54.4 6.3l.5 1.3M119 166.3l.5 1.3M53 6.9l.5 1.3M120.4 165.7l.5 1.3M51.6 7.5l.6 1.3M121.8 165.1l.5 1.3M50.2 8.1l.6 1.3M123.1 164.5l.6 1.3M48.8 8.8l.7 1.3M124.5 163.9l.6 1.2M47.5 9.5l.6 1.2M125.8 163.2l.7 1.3M46.1 10.2l.7 1.2M127.1 162.5l.7 1.3M44.8 10.9l.7 1.2M128.4 161.8l.7 1.2M43.5 11.7l.7 1.2M129.7 161.1l.8 1.2M42.2 12.4l.7 1.2M131 160.3l.8 1.2M40.9 13.2l.7 1.2M132.3 159.5l.8 1.2M39.6 14l.8 1.2M133.6 158.7l.7 1.2M38.3 14.9l.8 1.1M134.8 157.9l.8 1.2M37.1 15.7l.8 1.2M136 157.1l.9 1.1M35.8 16.6l.9 1.1M137.3 156.2l.8 1.1M34.6 17.5l.9 1.1M138.5 155.3l.8 1.1M33.4 18.4l.9 1.1M139.6 154.4l.9 1.1M32.2 19.4l.9 1.1M140.8 153.5l.9 1.1M31.1 20.3l.9 1.1M142 152.5l.9 1.1M29.9 21.3l.9 1.1M143.1 151.5l.9 1.1M28.8 22.3l.9 1.1M144.2 150.6l1 1M27.7 23.4l.9 1M145.3 149.5l1 1.1M26.6 24.4l.9 1M146.4 148.5l1 1M25.5 25.5l1 1M147.5 147.5l1 1M24.4 26.6l1 .9M148.5 146.4l1 1M23.4 27.7l1 .9M149.5 145.3l1.1 1M22.3 28.8l1.1.9M150.6 144.2l1 1M21.3 29.9l1.1.9M151.5 143.1l1.1.9M20.3 31.1l1.1.9M152.5 142l1.1.9M19.4 32.2l1.1.9M153.5 140.8l1.1.9M18.4 33.4l1.1.9M154.4 139.6l1.1.9M17.5 34.6l1.1.9M155.3 138.5l1.1.8M16.6 35.8l1.1.9M156.2 137.3l1.1.8M15.7 37.1l1.2.8M157.1 136l1.1.9M14.9 38.3l1.1.8M157.9 134.8l1.2.8M14 39.6l1.2.8M158.7 133.6l1.2.7M13.2 40.9l1.2.7M159.5 132.3l1.2.8M12.4 42.2l1.2.7M160.3 131l1.2.8M11.7 43.5l1.2.7M161.1 129.7l1.2.8M10.9 44.8l1.2.7M161.8 128.4l1.2.7M10.2 46.1l1.2.7M162.5 127.1l1.3.7M9.5 47.5l1.2.6M163.2 125.8l1.3.7M8.8 48.8l1.3.7M163.9 124.5l1.2.6M8.1 50.2l1.3.6M164.5 123.1l1.3.6M7.5 51.6l1.3.6M165.1 121.8l1.3.5M6.9 53l1.3.5M165.7 120.4l1.3.5M6.3 54.4l1.3.5M166.3 119l1.3.5M5.8 55.8l1.3.5M166.8 117.6l1.4.5M5.2 57.2l1.4.5M167.4 116.2l1.3.5M4.7 58.7l1.4.4M167.9 114.8l1.3.5M4.3 60.1l1.3.4M168.3 113.4l1.4.4M3.8 61.5l1.3.5M168.8 112l1.3.4M3.4 63l1.3.4M169.2 110.6l1.4.3M3 64.5l1.3.3M169.6 109.1l1.4.4M2.6 65.9l1.4.4M170 107.7l1.4.3M2.2 67.4l1.4.3M170.3 106.2l1.4.3M1.9 68.9l1.4.3M170.7 104.8l1.3.3M1.6 70.4l1.4.2M171 103.3l1.3.3M1.3 71.9l1.4.2M171.2 101.8l1.4.3M1.1 73.4l1.4.2M171.5 100.4l1.4.2M.8 74.9l1.4.2M171.7 98.9l1.4.2M.6 76.4l1.4.1M171.9 97.4l1.4.2M.5 77.9l1.4.1M172.1 95.9l1.4.2M.3 79.4l1.4.1M172.2 94.4l1.4.1M.2 80.9l1.4.1M172.3 92.9l1.4.1M.1 82.4l1.4.1M172.4 91.4l1.4.1M.1 83.9l1.4.1M172.5 90h1.4M0 85.5h1.4M172.5 88.5h1.4M0 87h1.4M172.5 87h1.4M0 88.5h1.4M172.5 85.5h1.4M.1 90h1.4M172.5 84l1.4-.1M.1 91.5l1.4-.1M172.4 82.5l1.4-.1M.2 93l1.4-.1M172.3 81l1.4-.1M.3 94.5l1.4-.1M172.2 79.5l1.4-.1M.5 96.1l1.4-.2M172.1 78l1.4-.1M.6 97.6l1.4-.2M171.9 76.5l1.4-.1M.8 99.1l1.4-.2M171.7 75.1l1.4-.2M1.1 100.6l1.4-.2M171.5 73.6l1.4-.2M1.3 102.1l1.4-.3M171.2 72.1l1.4-.2M1.6 103.6l1.4-.3M171 70.6l1.3-.2M1.9 105.1l1.4-.3M170.7 69.2l1.3-.3M2.2 106.5l1.4-.3M170.3 67.7l1.4-.3M2.6 108l1.4-.3M170 66.3l1.4-.4M3 109.5l1.3-.4M169.6 64.8l1.4-.3M3.4 110.9l1.3-.3M169.2 63.4l1.4-.4M3.8 112.4l1.3-.4M168.8 62l1.3-.5M4.3 113.8l1.3-.4M168.3 60.5l1.4-.4M4.7 115.3l1.4-.5M167.9 59.1l1.3-.4M5.2 116.7l1.4-.5M167.4 57.7l1.3-.5M5.8 118.1l1.3-.5M166.8 56.3l1.4-.5M6.3 119.5l1.3-.5M166.3 54.9l1.3-.5M6.9 120.9l1.3-.5M165.7 53.5l1.3-.5M7.5 122.3l1.3-.5M165.1 52.2l1.3-.6M8.1 123.7l1.3-.6M164.5 50.8l1.3-.6M8.8 125.1l1.3-.6M163.9 49.5l1.2-.7M9.5 126.5l1.2-.7M163.2 48.1l1.3-.6M10.2 127.8l1.2-.7M162.5 46.8l1.3-.7M10.9 129.1l1.2-.7M161.8 45.5l1.2-.7M11.7 130.5l1.2-.8M161.1 44.2l1.2-.7M12.4 131.8l1.2-.8M160.3 42.9l1.2-.7M13.2 133.1l1.2-.8M159.5 41.6l1.2-.7M14 134.3l1.2-.7M158.7 40.4l1.2-.8M14.9 135.6l1.1-.8M157.9 39.1l1.2-.8M15.7 136.9l1.2-.9M157.1 37.9l1.1-.8M16.6 138.1l1.1-.8M156.2 36.7l1.1-.9M17.5 139.3l1.1-.8M155.3 35.5l1.1-.9M18.4 140.5l1.1-.9M154.4 34.3l1.1-.9M19.4 141.7l1.1-.9M153.5 33.1l1.1-.9M20.3 142.9l1.1-.9M152.5 32l1.1-.9M21.3 144l1.1-.9M151.5 30.8l1.1-.9M22.3 145.2l1.1-1M150.6 29.7l1-.9M23.4 146.3l1-1M149.5 28.6l1.1-.9M24.4 147.4l1-1M148.5 27.5l1-.9M25.5 148.5l1-1M147.5 26.5l1-1M26.6 149.5l.9-1M146.4 25.4l1-1M27.7 150.6l.9-1.1M145.3 24.4l1-1M28.8 151.6l.9-1M144.2 23.4l1-1.1M29.9 152.6l.9-1.1M143.1 22.4l.9-1.1M31.1 153.6l.9-1.1M142 21.4l.9-1.1M32.2 154.6l.9-1.1M140.8 20.5l.9-1.1M33.4 155.5l.9-1.1M139.6 19.5l.9-1.1M34.6 156.4l.9-1.1M138.5 18.6l.8-1.1M35.8 157.3l.9-1.1M137.3 17.7l.8-1.1M37.1 158.2l.8-1.1M136 16.9l.9-1.2M38.3 159.1l.8-1.2M134.8 16l.8-1.1M39.6 159.9l.8-1.2M133.6 15.2l.7-1.2M40.9 160.7l.7-1.2M132.3 14.4l.8-1.2M42.2 161.5l.7-1.2M131 13.6l.8-1.2M43.5 162.3l.7-1.2M129.7 12.9l.8-1.2M44.8 163l.7-1.2M128.4 12.1l.7-1.2M46.1 163.8l.7-1.3M127.1 11.4l.7-1.2M47.5 164.5l.6-1.3M125.8 10.7l.7-1.2M48.8 165.1l.7-1.2M124.5 10.1l.6-1.3M50.2 165.8l.6-1.3M123.1 9.4l.6-1.3M51.6 166.4l.6-1.3M121.8 8.8l.5-1.3M53 167l.5-1.3M120.4 8.2l.5-1.3M54.4 167.6l.5-1.3M119 7.6l.5-1.3M55.8 168.2l.5-1.4M117.6 7.1l.5-1.3M57.2 168.7l.5-1.3M116.2 6.6l.5-1.4M58.7 169.2l.4-1.3M114.8 6.1l.5-1.4M60.1 169.7l.4-1.4M113.4 5.6l.4-1.3M61.5 170.1l.5-1.3M112 5.1l.4-1.3M63 170.6l.4-1.4M110.6 4.7l.3-1.3M64.5 171l.3-1.4M109.1 4.3l.4-1.3M65.9 171.4l.4-1.4M107.7 4l.3-1.4M67.4 171.7l.3-1.4M106.2 3.6l.3-1.4M68.9 172l.3-1.3M104.8 3.3l.3-1.4M70.4 172.3l.2-1.3M103.3 3l.3-1.4M71.9 172.6l.2-1.4M101.8 2.7l.3-1.4M73.4 172.9l.2-1.4M100.4 2.5l.2-1.4M74.9 173.1l.2-1.4M98.9 2.2l.2-1.4M76.4 173.3l.1-1.4M97.4 2l.2-1.4M77.9 173.5l.1-1.4M95.9 1.9l.2-1.4M79.4 173.6l.1-1.4M94.4 1.7l.1-1.4M80.9 173.7l.1-1.4M92.9 1.6L93 .2M82.4 173.8l.1-1.4M91.4 1.5l.1-1.4M83.9 173.9l.1-1.4M90 1.5V.1M85.5 173.9v-1.4M88.5 1.4V0"/></svg>